# xmcd
#
# Track frame offsets: 
#        150
#        12258
#        31270
#        43738
#        54613
#        69225
#        85649
#        99533
#        118688
#        130719
#        143764
#        157372
#        195097
#        209576
#        224342
#
# Disc length: 3227 seconds
#
# Revision: 0
# Processed by: cddbd v1.5.2PL0 Copyright (c) Steve Scherf et al.
# Submitted via: ExactAudioCopy v0.95b3
#
DISCID=d00c990f
DTITLE=The Beatles  - The Beatles Deluxe - Disc 04 - mono  PC-134  FLA
DTITLE=C
DYEAR=1900
DGENRE=
TTITLE0=Birthday (mono)
TTITLE1=Yer Blues (mono)
TTITLE2=Mother Nature's Son (mono)
TTITLE3=Everybody's Got Something to Hide Except Me and My Monkey (mon
TTITLE3=o)
TTITLE4=Sexy Sadie (mono)
TTITLE5=Helter Skelter (mono)
TTITLE6=Long Long Long (mono)
TTITLE7=Revolution 1 (mono)
TTITLE8=Honey Pie (mono)
TTITLE9=Savoy Truffle (mono)
TTITLE10=Cry Baby Cry (mono)
TTITLE11=Revolution 9 (mono)
TTITLE12=Good Night (mono)
TTITLE13=While My Guitar Gently Weeps - take 1 (mono)
TTITLE14=Don't Pass Me By (mono original speed)
EXTD=
EXTT0=
EXTT1=
EXTT2=
EXTT3=
EXTT4=
EXTT5=
EXTT6=
EXTT7=
EXTT8=
EXTT9=
EXTT10=
EXTT11=
EXTT12=
EXTT13=
EXTT14=
PLAYORDER=
